# xmcd CD database file
# Copyright (C) 1993-1996 Ti Kan
#
# Track frame offsets:
# 150
# 11970
# 23467
# 36015
# 47427
# 57692
# 70087
# 82725
# 96307
# 107760
# 120617
# 132072
# 142405
# 154715
# 167332
# 179915
# 192385
# 203595
# 214010
# 226867
# 236585
# 249445
#
# Disc length: 3475 seconds
#
# Revision: 0
# Processed by: cddbd v1.4b41PL1 Copyright (c) Steve Scherf et al.
# Submitted via: inCDius 1.1b5
#
DISCID=2b0d9116
DTITLE=Ernest Tubb - Let's Say Goodbye Like We Said Hello - Disc 5
DYEAR=1900
DGENRE=
TTITLE0=The Honeymoon Is Over
TTITLE1=No Help Wanted and 2
TTITLE2=You're A Real Good Friend
TTITLE3=A Dear John Letter
TTITLE4=Double Datin'
TTITLE5=It's The Mileage That's Slowin' Us Down 
TTITLE6=Divorce Granted
TTITLE7=Honky-Tonk Heart
TTITLE8=I'm Not Looking For An Angel
TTITLE9=I Met A Friend
TTITLE10=When Jesus Calls
TTITLE11=Too Old To Tango
TTITLE12=Dr. Ketchum
TTITLE13=Love Lifted Me
TTITLE14=White Christmas
TTITLE15=Blue Christmas
TTITLE16=Christmas Island
TTITLE17=C-H-R-I-S-T-M-A-S
TTITLE18=We Need God For Christmas
TTITLE19=Merry Christmas You All
TTITLE20=Blue Snowflakes
TTITLE21=I'm Trimming My Christmas Tree With Teardrops
EXTD=
EXTT0=
EXTT1=With Red Foley
EXTT2=With Red Foley
EXTT3=With Elaine Scoofer, Bill Tubb 
EXTT4=With Red Foley
EXTT5=With Red Foley
EXTT6=
EXTT7=
EXTT8=
EXTT9=
EXTT10=
EXTT11=With Red Foley
EXTT12=With Red Foley
EXTT13=
EXTT14=
EXTT15=
EXTT16=
EXTT17=
EXTT18=
EXTT19=
EXTT20=
EXTT21=
PLAYORDER=
